<svg width="154" height="110" viewBox="0 0 154 110" fill="none" xmlns="http://www.w3.org/2000/svg">
<path d="M79.2677 109.536C92.5566 109.536 103.937 100.287 106.684 87.4132C109.578 86.8822 112.402 85.9358 115.118 84.5738C119.173 89.6832 125.36 92.6995 131.9 92.6995C143.62 92.6995 153.161 83.1656 153.161 71.4387C153.161 59.7118 144.351 50.9397 133.293 50.2241C131.115 33.7187 117.134 21.4146 100.282 21.4146C98.1354 21.4146 96.0578 21.6147 94.0802 22.0071C90.5791 10.2109 79.7678 2.08521 67.333 2.08521C53.2591 2.08521 41.2552 12.8503 39.6624 26.7471C31.5982 30.456 25.4192 37.2506 22.4875 45.6072C21.3948 45.3917 20.2329 45.284 19.0171 45.284C8.54445 45.284 0.0339624 53.8176 0.0339624 64.321C0.0339624 74.8244 8.55214 83.3042 19.0171 83.3042C22.9953 83.3042 26.8812 82.0653 30.0977 79.7953C36.0996 85.8127 43.9484 89.2215 52.405 89.4831C55.8984 101.349 66.7943 109.536 79.2677 109.536ZM115.51 81.4959C115.295 81.4959 115.072 81.5497 114.864 81.6575C111.824 83.3118 108.616 84.4045 105.338 84.897C104.768 84.9816 104.307 85.4279 104.207 85.9973C102.052 98.0705 91.564 106.835 79.26 106.835C67.6792 106.835 57.5913 99.017 54.7442 87.8133C54.5903 87.2131 54.0517 86.7976 53.4361 86.7976C44.9333 86.7976 37.0461 83.3426 31.2211 77.079C30.7363 76.5558 29.9284 76.5019 29.3744 76.9482C26.4657 79.3105 22.7799 80.611 19.0017 80.611C10.0219 80.611 2.71946 73.3086 2.71946 64.3287C2.71946 55.3488 10.0219 48.0003 19.0017 48.0003C20.4407 48.0003 21.7873 48.1772 22.9876 48.5312C23.7033 48.739 24.442 48.3311 24.6574 47.6309C27.2429 39.2205 33.368 32.4028 41.4476 28.9248C41.9092 28.7324 42.217 28.2938 42.2632 27.8013C43.3636 14.9125 54.3749 4.80918 67.3253 4.80918C78.9599 4.80918 89.0247 12.681 91.7948 23.9539C91.8795 24.3079 92.1026 24.6003 92.4104 24.7927C92.7182 24.9773 93.0876 25.0312 93.4338 24.9465C95.573 24.4156 97.8738 24.1386 100.275 24.1386C116.118 24.1386 129.207 35.9809 130.723 51.6861C130.792 52.3786 131.362 52.9019 132.054 52.9096C142.196 52.9942 150.445 61.3123 150.445 71.4618C150.445 81.6113 142.119 90.014 131.893 90.014C125.837 90.014 120.12 87.0515 116.611 82.0807C116.349 81.7113 115.934 81.5113 115.503 81.5113L115.51 81.4959Z" fill="white"/>
<path d="M18.1633 34.7268C27.751 34.7268 35.5459 26.9319 35.5459 17.3442C35.5459 7.75639 27.751 0 18.1633 0C8.57551 0 0.78065 7.77948 0.78065 17.3442C0.78065 26.9088 8.58321 34.7268 18.1633 34.7268ZM18.1633 2.70089C26.2582 2.70089 32.845 9.26458 32.845 17.3365C32.845 25.4083 26.2582 32.0182 18.1633 32.0182C10.0683 32.0182 3.48153 25.4314 3.48153 17.3365C3.48153 9.24149 10.0683 2.70089 18.1633 2.70089Z" fill="white"/>
<path d="M122.682 49.6932C122.682 49.6932 122.736 49.6932 122.759 49.6932C123.505 49.6547 124.075 49.0083 124.028 48.2696C123.559 39.9977 118.103 32.2875 110.462 29.0864C109.77 28.8017 108.977 29.1172 108.693 29.8097C108.408 30.5023 108.731 31.2948 109.416 31.5795C116.126 34.3882 120.92 41.1596 121.335 48.4235C121.374 49.1468 121.974 49.7009 122.682 49.7009V49.6932Z" fill="white"/>
<path d="M138.333 87.5057C138.564 87.5057 138.795 87.4441 139.01 87.321C143.504 84.7201 146.644 79.8878 147.19 74.7245C147.736 69.5536 145.69 64.1826 141.834 60.6969C141.28 60.1967 140.426 60.2352 139.926 60.7892C139.426 61.3432 139.464 62.1974 140.018 62.6975C143.243 65.6216 144.959 70.1153 144.497 74.4398C144.035 78.7643 141.419 82.8041 137.656 84.9818C137.01 85.3588 136.787 86.1821 137.164 86.8285C137.418 87.2594 137.872 87.5057 138.333 87.5057Z" fill="white"/>
<path d="M83.0918 102.765C83.1456 102.765 83.1995 102.765 83.2534 102.757C87.8395 102.218 92.2178 99.679 94.9495 95.9624C97.6889 92.2381 98.82 87.3134 97.9736 82.7734C97.8351 82.0424 97.1502 81.5499 96.3961 81.6961C95.6651 81.8347 95.1804 82.5349 95.3112 83.2736C96.0191 87.0902 95.0726 91.2377 92.7719 94.3618C90.4711 97.4859 86.793 99.6251 82.9379 100.079C82.1992 100.164 81.6682 100.833 81.7529 101.58C81.8298 102.264 82.4146 102.772 83.0918 102.772V102.765Z" fill="white"/>
<path d="M83.8845 25.347C83.9384 25.347 83.9923 25.347 84.0461 25.3393C84.7848 25.2547 85.3158 24.5775 85.2311 23.8388C84.6848 19.2604 82.3148 14.9744 78.729 12.0811C75.1432 9.18016 70.4417 7.772 65.8632 8.19522C65.1168 8.26447 64.5782 8.92623 64.6398 9.66493C64.709 10.4036 65.3554 10.9269 66.1095 10.8884C69.9954 10.5037 73.9813 11.7195 77.0284 14.1818C80.0756 16.6441 82.0839 20.2761 82.5456 24.162C82.6303 24.8468 83.2074 25.3547 83.8845 25.3547V25.347Z" fill="white"/>
<path d="M7.72904 68.8456C7.72904 68.8456 7.80599 68.8456 7.83677 68.8456C8.58317 68.784 9.13719 68.1376 9.07564 67.3912C8.80632 64.0132 9.91438 60.6044 12.1074 58.0266C14.3081 55.4489 17.5015 53.8252 20.8795 53.5636C21.6259 53.5098 22.1799 52.8557 22.1184 52.1093C22.0645 51.3629 21.4028 50.7704 20.6641 50.8704C16.5781 51.1859 12.7076 53.1558 10.0452 56.2722C7.38277 59.3886 6.04388 63.5207 6.37475 67.6067C6.42862 68.3146 7.02112 68.8532 7.72135 68.8532L7.72904 68.8456Z" fill="white"/>
<path d="M27.0731 21.8534C27.6964 21.8534 28.2581 21.4148 28.3966 20.7838C29.0122 17.8905 28.5043 14.7664 27.0038 12.2194C25.5034 9.67244 23.0179 7.71795 20.1939 6.85613C19.486 6.64067 18.7242 7.04081 18.5087 7.75642C18.2933 8.47204 18.6934 9.22614 19.409 9.44159C21.5944 10.111 23.5181 11.6192 24.68 13.5891C25.8419 15.559 26.2344 17.9675 25.7573 20.2144C25.6034 20.9454 26.0651 21.661 26.7961 21.8226C26.8884 21.838 26.9884 21.8534 27.0808 21.8534H27.0731Z" fill="white"/>
</svg>
