<svg width="136" height="120" viewBox="0 0 136 120" fill="none" xmlns="http://www.w3.org/2000/svg">
<path d="M47.9847 6.96783C49.806 8.07422 51.2196 9.60486 52.5966 11.1557C54.3138 13.0901 56.0969 14.9569 57.9696 16.7385C60.0058 18.6752 61.9373 20.7124 63.812 22.8056C65.6776 24.8876 67.6324 26.8887 69.4517 29.0113C71.426 31.3143 73.4998 33.53 75.5667 35.7475C78.6506 39.0565 81.6771 42.4154 84.7207 45.7614C86.2898 47.4863 87.8782 49.1931 89.4152 50.9461C92.4629 54.4189 95.4538 57.9402 98.3473 61.5437C99.992 63.5928 101.502 65.7424 103.099 67.8252C104.747 69.9753 106.432 72.0976 108.116 74.2194C110.377 77.0675 112.684 79.8807 114.622 82.9692C114.906 83.4207 115.14 83.9072 115.455 84.3351C116.345 85.5455 116.158 86.7902 115.612 88.0441C115.118 89.1808 114.338 90.1295 113.471 90.9951C111.484 92.9752 109.265 94.6643 106.904 96.1769C105.272 97.2214 103.689 98.3411 102.07 99.4059C99.1701 101.313 96.1481 103.018 93.155 104.773C90.9392 106.072 88.6299 107.211 86.4831 108.63C85.9441 108.986 85.4211 109.366 84.8908 109.734C84.7637 109.823 84.6387 109.914 84.5072 109.995C83.6611 110.505 83.3438 110.384 83.0516 109.448C83.0403 109.411 83.0073 109.38 82.9835 109.345C82.739 109.712 82.7105 110.207 82.9236 110.6C83.1428 111.003 83.524 111.142 83.9477 111.154C84.5898 111.171 85.2009 110.999 85.7833 110.744C88.2944 109.644 90.7267 108.392 93.0809 106.982C97.7206 104.204 102.267 101.281 106.737 98.2367C109.048 96.6624 111.374 95.1119 113.527 93.329C115.1 92.0269 116.376 90.4963 116.816 88.4202C117.037 87.3761 116.893 86.3777 116.396 85.439C116.204 85.0747 116.065 84.7165 116.021 84.2977C115.786 82.0758 114.966 80.0631 113.794 78.1756C112.79 76.5594 111.574 75.1054 110.36 73.6506C108.436 71.3431 106.561 68.9949 104.714 66.6246C102.677 64.0102 100.666 61.3771 98.5533 58.8248C94.6928 54.1599 90.6508 49.6527 86.5704 45.1816C84.0427 42.4122 81.5024 39.6515 78.9718 36.8856C76.3737 34.0462 73.7312 31.2466 71.197 28.3524C68.217 24.9486 65.1022 21.668 62.0856 18.2995C61.0471 17.1405 59.8941 16.0841 58.7954 14.9782C57.6372 13.8127 56.4921 12.6371 55.3659 11.4404C54.1138 10.108 52.7613 8.88063 51.1651 7.95678C50.2469 7.42472 49.2845 7.008 48.2114 6.90961C48.1429 6.90363 48.0745 6.8781 47.9858 6.97278L47.9847 6.96783Z" fill="#FFB224"/>
<path d="M19.135 32.6494C19.3357 32.6684 19.4028 32.5215 19.5046 32.4395C22.7516 29.7762 25.4703 26.6324 27.9248 23.2409C30.0663 20.2823 32.4885 17.5449 34.7863 14.71C36.0576 13.1395 37.3085 11.5519 38.7356 10.1139C39.7088 9.1332 40.7768 8.27902 41.9333 7.52166C43.3216 6.61305 44.8565 6.26483 46.4824 6.20157C46.7184 6.19229 46.9571 6.20672 47.1905 6.10886C47.1009 5.91953 46.9148 5.90932 46.7671 5.85545C43.9459 4.83954 41.3909 5.37889 39.0439 7.17436C37.4343 8.4059 36.1191 9.91977 34.9 11.5185C32.1158 15.1675 29.2358 18.7423 26.3915 22.3449C24.0424 25.321 21.7638 28.3476 19.7173 31.5429C19.4957 31.8898 19.2513 32.2292 19.1363 32.6499L19.135 32.6494Z" fill="#FFB224"/>
<path d="M83.6858 108.991C84.8844 107.642 86.4628 106.89 87.8661 105.901C89.9809 104.411 91.9053 102.688 93.857 100.996C95.5996 99.4852 97.2472 97.8825 98.8007 96.1821C99.6067 95.2998 100.315 94.3379 100.795 93.2289C101.151 92.4085 100.944 91.587 100.283 91.1766C99.7166 90.8243 99.2187 90.9005 98.7927 91.4171C98.6708 91.565 98.5255 91.7037 98.4685 91.9241C98.6769 91.9809 98.7687 91.7908 98.9115 91.7386C99.1722 91.6441 99.4511 91.4767 99.6921 91.7335C99.9234 91.9803 99.8819 92.2838 99.7199 92.5562C99.4251 93.0537 99.0566 93.501 98.636 93.893C96.7379 95.6638 94.9902 97.5921 93.0143 99.2808C91.3713 100.685 89.6739 102.028 88.0953 103.506C86.8456 104.674 85.5562 105.806 84.4783 107.147C83.9227 107.838 83.6787 108.406 83.6865 108.993L83.6858 108.991Z" fill="#FFB224"/>
<path d="M89.2254 81.6048C89.4703 81.5311 89.6647 81.4631 89.8646 81.4154C90.1811 81.3399 90.4129 81.4904 90.5824 81.737C90.7425 81.9693 90.6113 82.1829 90.4645 82.3482C90.1395 82.7161 89.7987 83.0703 89.4489 83.4132C86.5372 86.2589 83.5152 88.987 80.5098 91.7338C78.8322 93.2673 77.2498 94.9034 75.7639 96.6274C75.2984 97.1676 74.9026 97.7565 74.6568 98.4696C75.1175 98.1478 75.5709 97.814 76.0397 97.506C78.9182 95.6219 81.4136 93.268 84.004 91.0286C86.4111 88.9476 88.6671 86.7299 90.6743 84.2599C91.0655 83.7778 91.3936 83.2572 91.6417 82.6869C91.8976 82.0971 91.7499 81.5166 91.2555 81.1566C90.6704 80.7322 90.0471 80.7287 89.5543 81.1585C89.4307 81.265 89.2828 81.3604 89.2272 81.604L89.2254 81.6048Z" fill="#FFB224"/>
<path d="M75.9063 66.9567C76.1208 66.96 76.2046 66.8091 76.3291 66.727C76.5034 66.6104 76.6718 66.4823 76.8566 66.3849C77.021 66.2975 77.2456 66.2369 77.3712 66.3771C77.5136 66.536 77.2963 66.6734 77.2142 66.8009C76.8229 67.4051 76.3402 67.943 75.8063 68.4154C73.8346 70.1586 72.1283 72.1576 70.3106 74.0492C69.5122 74.8817 68.5855 75.573 67.7242 76.3355C65.9013 77.9504 64.252 79.729 62.7308 81.6262C62.3639 82.0847 62.06 82.5861 61.9252 83.2782C62.3241 82.9334 62.6332 82.6211 62.986 82.3698C65.5281 80.558 67.932 78.5768 70.2034 76.4421C72.4218 74.3574 74.6254 72.2532 76.6706 69.9959C77.4554 69.1293 78.0703 68.1352 78.5031 67.0404C78.7683 66.3697 78.7115 65.9867 78.2903 65.6858C77.797 65.3308 77.1298 65.3658 76.6517 65.7697C76.3713 66.0059 76.0556 66.5027 75.904 66.9588L75.9063 66.9567Z" fill="#FFB224"/>
<path d="M63.209 51.0466C62.2883 51.4023 61.5634 51.9802 60.8403 52.5574C58.4479 54.4677 56.1518 56.493 53.817 58.4713C52.1771 59.8598 50.3892 61.0616 48.7459 62.4473C48.0582 63.0264 47.3698 63.6036 46.6763 64.1744C46.2715 64.5077 45.833 64.781 45.306 64.8849C44.5913 65.0248 44.2348 64.7284 44.2186 64.0023C44.2112 63.6509 44.3309 63.2908 44.1603 62.8295C43.8399 63.5101 43.4919 64.0847 43.5058 64.7556C43.5244 65.6169 44.5663 66.3246 45.5559 66.1878C46.4322 66.0665 47.1581 65.6006 47.8675 65.1192C49.1239 64.2655 50.2376 63.2272 51.4416 62.3076C53.4161 60.7979 55.383 59.2806 57.2931 57.6896C59.3224 55.9994 61.1004 54.0785 62.6294 51.9249C62.8071 51.6738 63.011 51.4406 63.2 51.1954C63.2129 51.1779 63.2037 51.1441 63.2093 51.0497L63.209 51.0466Z" fill="#FFB224"/>
<path d="M84.8272 76.2417C84.9649 76.4048 85.0922 76.3193 85.2071 76.3074C85.4319 76.2846 85.6569 76.2725 85.8773 76.3219C86.3694 76.432 86.5562 76.8182 86.3363 77.2714C85.9279 78.1133 85.2391 78.7221 84.5824 79.3527C83.9363 79.9754 83.2521 80.5573 82.6094 81.1829C80.4237 83.3107 78.0113 85.1799 75.7521 87.2228C73.8734 88.9213 72.0703 90.6844 70.5858 92.7484C70.3689 93.049 70.1494 93.356 70.1423 93.7937C71.4053 92.8356 72.6438 91.9205 73.856 90.9725C77.9552 87.768 81.6871 84.1528 85.4581 80.5801C86.162 79.9139 86.7805 79.1626 87.233 78.2929C87.3432 78.083 87.4424 77.8627 87.5152 77.6365C87.7077 77.0427 87.5346 76.431 87.0892 76.0693C86.6004 75.6724 85.925 75.5984 85.3894 75.8921C85.1988 75.9963 85.0201 76.1203 84.8277 76.2404L84.8272 76.2417Z" fill="#FFB224"/>
<path d="M58.0409 77.6695C59.923 76.2485 61.7274 74.8752 63.4093 73.3464C65.5597 71.3917 67.6842 69.4072 69.7232 67.3375C70.9232 66.1191 72.1679 64.9364 73.2332 63.5892C73.5927 63.1339 73.8727 62.632 74.0688 62.0864C74.2642 61.5465 74.1409 61.0301 73.7636 60.7481C73.3107 60.4091 72.6803 60.3892 72.2378 60.7031C71.9182 60.9313 71.6324 61.1925 71.3819 61.5551C71.6184 61.5943 71.7614 61.4653 71.9235 61.4102C72.1231 61.3442 72.3174 61.2611 72.521 61.2119C72.6962 61.1695 72.8626 61.2293 72.9649 61.3829C73.0626 61.5286 72.9537 61.6515 72.882 61.768C72.5928 62.2437 72.1963 62.6361 71.7718 62.9692C70.3505 64.0835 69.1159 65.3894 67.8722 66.6841C66.3636 68.2558 64.7259 69.692 63.1864 71.2273C61.5495 72.86 59.9436 74.5366 58.6218 76.4522C58.3809 76.8021 58.1656 77.1711 58.0388 77.6672L58.0409 77.6695Z" fill="#FFB224"/>
<path d="M81.2352 71.0928C81.6365 71.1157 82.051 71.0291 82.2141 71.4331C82.3865 71.8634 82.0424 72.1498 81.7991 72.4218C81.0191 73.2917 80.1255 74.0444 79.2284 74.7867C77.0968 76.5526 75.0803 78.4471 73.0463 80.321C71.0208 82.1848 69.0785 84.1357 67.2681 86.2113C66.9086 86.6244 66.5493 87.0406 66.3665 87.5718C66.3433 87.6381 66.3143 87.7036 66.4073 87.8083C67.3318 86.92 68.5004 86.3802 69.5151 85.6075C72.1673 83.5857 74.5333 81.2349 77.0638 79.0744C78.6144 77.7517 80.1437 76.41 81.4596 74.845C82.1603 74.0116 82.7584 73.1134 83.0848 72.0626C83.2376 71.5692 83.0269 71.1328 82.5376 70.8745C82.1044 70.6459 81.5687 70.7147 81.2365 71.0933L81.2352 71.0928Z" fill="#FFB224"/>
<path d="M58.2334 46.7695C57.939 46.7241 57.6841 46.827 57.4284 46.928C56.1659 47.4232 55.1456 48.2902 54.0867 49.0982C51.2521 51.2607 48.5419 53.5779 45.7222 55.7598C44.2808 56.8753 42.9428 58.1222 41.487 59.2244C41.2288 59.4195 40.9826 59.63 40.6848 59.7612C40.2494 59.9542 40.0741 59.8441 39.98 59.3799C39.9168 59.0667 40.0421 58.7421 39.8876 58.3506C39.6169 58.9361 39.3536 59.4416 39.431 60.0395C39.4971 60.544 40.0086 60.876 40.6082 60.8097C41.159 60.7484 41.6726 60.5637 42.1664 60.3184C43.6602 59.5782 44.9856 58.5844 46.2874 57.5586C47.8633 56.3167 49.4313 55.0642 51.0017 53.8172C52.8736 52.3303 54.5923 50.6817 56.1884 48.9002C56.8393 48.1738 57.4087 47.3593 58.2334 46.7695Z" fill="#FFB224"/>
<path d="M31.1455 48.7604C30.823 49.244 30.5269 49.741 30.5682 50.3654C30.5995 50.8319 30.9488 51.2115 31.4443 51.3168C31.8981 51.4133 32.3305 51.3308 32.7606 51.1628C34.1298 50.6269 35.274 49.744 36.401 48.8362C38.6855 46.9964 40.9714 45.1571 43.2356 43.2927C44.4614 42.2836 45.5328 41.1079 46.6516 39.9841C47.5742 39.0588 48.4011 38.0474 49.2607 37.064C49.4973 36.7939 49.7801 36.5633 50.0947 36.2637C49.7969 36.25 49.5958 36.335 49.3971 36.4254C47.6024 37.2322 46.1311 38.4957 44.6779 39.7785C42.9198 41.3285 41.2316 42.9575 39.4007 44.4244C37.3309 46.0836 35.2695 47.752 33.2421 49.4641C32.8567 49.7901 32.4334 50.0708 31.955 50.2543C31.4692 50.441 31.2062 50.2782 31.1715 49.7439C31.161 49.5798 31.2111 49.411 31.2256 49.2447C31.2395 49.0948 31.2426 48.9421 31.2508 48.7915C31.2154 48.782 31.1804 48.7712 31.1449 48.7617L31.1455 48.7604Z" fill="#FFB224"/>
<path d="M54.2139 40.9145C54.5013 40.9165 54.7895 40.9051 55.0751 40.923C55.6912 40.9599 55.8191 41.2051 55.4978 41.739C55.2413 42.1626 54.8875 42.5116 54.5222 42.8364C51.6412 45.3834 48.9195 48.1035 46.0414 50.6546C44.3215 52.1805 42.6807 53.8041 41.4221 55.7583C41.0661 56.3116 40.698 56.8647 40.5404 57.519C40.5147 57.622 40.4432 57.7266 40.5599 57.8587C41.0363 57.3485 41.5143 56.8494 42.0325 56.3859C43.123 55.4139 44.2679 54.5101 45.4037 53.5952C47.0133 52.2988 48.481 50.8497 49.9625 49.4152C52.0001 47.4445 53.9757 45.4132 55.8024 43.243C56.1289 42.8561 56.3716 42.4104 56.5886 41.953C56.7692 41.5687 56.8073 41.1976 56.5167 40.8488C56.2007 40.4688 55.8038 40.244 55.2979 40.3367C54.8974 40.4107 54.5494 40.6231 54.1898 40.8038C54.198 40.8403 54.2057 40.878 54.2126 40.914L54.2139 40.9145Z" fill="#FFB224"/>
<path d="M80.528 70.9887C79.6554 71.2533 78.9755 71.7403 78.2879 72.2199C75.8182 73.9442 73.5785 75.9451 71.3489 77.9589C69.7532 79.3997 67.9677 80.6069 66.3212 81.9853C65.2993 82.8411 64.2515 83.6671 63.2121 84.5024C62.903 84.7499 62.5734 84.9575 62.1638 85.0053C61.6163 85.0695 61.4919 84.9795 61.4109 84.4481C61.394 84.3343 61.4362 84.1895 61.2941 84.1137C60.743 84.8856 60.911 85.4681 61.7723 85.7664C62.6427 86.0683 63.4351 85.8158 64.193 85.3987C65.7353 84.551 67.1738 83.5536 68.5108 82.4044C70.5965 80.6097 72.7227 78.8613 74.787 77.0445C76.5991 75.4495 78.3413 73.7755 79.8484 71.8757C80.0493 71.6232 80.2761 71.3931 80.4885 71.1496C80.5046 71.1318 80.5029 71.098 80.5285 70.9874L80.528 70.9887Z" fill="#FFB224"/>
<path d="M70.5823 61.9946C69.8179 62.3442 69.1563 62.7888 68.5033 63.2382C66.1584 64.8489 64.1002 66.8069 61.9779 68.6867C60.8004 69.7299 59.5713 70.709 58.2927 71.6263C57.0692 72.5036 56.0055 73.5722 54.8129 74.4857C54.4682 74.7508 54.1109 75.0018 53.6988 75.1588C53.1441 75.371 52.8254 75.1695 52.7933 74.5714C52.7801 74.3263 52.8159 74.0794 52.8321 73.775C52.3387 74.1759 52.153 75.05 52.3876 75.5939C52.5882 76.0595 53.1542 76.3452 53.7631 76.2706C54.5913 76.168 55.3162 75.7847 56.0147 75.3653C57.7737 74.309 59.4603 73.1457 60.9969 71.7782C63.1236 69.8835 65.2671 68.0076 67.2679 65.9772C68.402 64.8262 69.4678 63.6151 70.4573 62.3375C70.5156 62.2625 70.5972 62.1937 70.5836 61.9952L70.5823 61.9946Z" fill="#FFB224"/>
<path d="M79.1806 103.384C79.2621 103.358 79.3132 103.358 79.3342 103.332C80.403 102.033 81.8782 101.225 83.145 100.166C84.4048 99.113 85.6361 98.0291 86.837 96.9076C88.0467 95.779 89.3111 94.7067 90.5527 93.6118C92.2075 92.1552 93.8416 90.6784 95.2175 88.9426C95.5063 88.5785 95.7551 88.1895 95.9533 87.7684C96.2373 87.1685 96.1399 86.7242 95.605 86.3331C95.1892 86.0299 94.7226 85.9088 94.1984 86.0515C94.4309 86.1963 94.675 86.323 94.8917 86.4886C95.2845 86.7888 95.3194 87.0515 95.0459 87.4685C94.8514 87.7658 94.586 87.9943 94.3209 88.2259C92.6303 89.7046 90.7986 91.0172 89.1804 92.5758C87.2085 94.4759 85.0516 96.1684 83.1082 98.0993C81.873 99.3265 80.6303 100.546 79.7152 102.048C79.4667 102.455 79.2693 102.878 79.1806 103.384Z" fill="#FFB224"/>
<path d="M75.4126 66.8758C74.9562 66.8508 74.5683 66.9962 74.2106 67.2063C72.6462 68.1253 71.1513 69.1471 69.7821 70.3394C68.0037 71.8874 66.2894 73.5136 64.4652 75.0058C62.6628 76.4809 60.9339 78.0486 59.0503 79.4237C58.7531 79.6412 58.4338 79.8152 58.0896 79.9416C57.5685 80.1339 57.2993 79.937 57.2611 79.3621C57.2397 79.0307 57.4258 78.709 57.2647 78.3571C56.9746 78.8806 56.575 79.3609 56.6005 80.0062C56.6238 80.6265 57.3566 81.1697 58.1017 81.1399C58.6001 81.1197 59.0612 80.9761 59.5079 80.7469C60.9326 80.0171 62.1493 79.0044 63.3728 77.9899C65.1889 76.4839 66.9744 74.9447 68.7486 73.3921C70.7885 71.6064 72.7676 69.7606 74.5597 67.72C74.8233 67.4199 75.1271 67.1552 75.4118 66.874L75.4126 66.8758Z" fill="#FFB224"/>
<path d="M48.6394 68.1883C48.3416 68.4493 48.1599 68.7637 48.0725 69.1184C47.8658 69.9541 48.5402 70.6221 49.5004 70.5596C50.4744 70.4966 51.3011 70.0465 52.1122 69.5675C53.752 68.6029 55.2233 67.4042 56.6676 66.1782C58.6474 64.4986 60.6349 62.8265 62.5746 61.0994C64.2192 59.6342 65.8255 58.1208 67.2242 56.4075C67.309 56.3037 67.44 56.2243 67.4317 55.9932C66.7728 56.2517 66.1921 56.606 65.6082 56.9455C62.7427 58.6099 60.3676 60.877 57.9279 63.0825C55.6388 65.1513 53.2772 67.1477 50.6759 68.8306C50.2396 69.1137 49.7843 69.3683 49.2689 69.4813C48.8172 69.5819 48.5958 69.3977 48.6015 68.9368C48.6055 68.6864 48.6258 68.4364 48.64 68.187L48.6394 68.1883Z" fill="#FFB224"/>
<path d="M44.6751 62.8812C45.032 62.8066 45.2184 62.6328 45.4128 62.4924C47.4806 60.9909 49.5309 59.4689 51.395 57.7118C52.9891 56.2101 54.5259 54.6511 56.0675 53.0954C56.9462 52.2086 57.9155 51.4135 58.7471 50.4779C59.6366 49.4761 60.4377 48.4153 60.9931 47.1864C61.086 46.9818 61.1738 46.7751 61.1859 46.546C61.2209 45.9155 60.7263 45.4227 60.1048 45.4908C59.6157 45.5449 59.232 45.8171 58.7939 46.1389C59.1192 46.2131 59.3559 46.1106 59.5981 46.0932C59.7797 46.0805 59.9814 46.0396 60.1004 46.2194C60.2276 46.413 60.1181 46.5945 60.0114 46.7651C59.5591 47.4855 58.9821 48.1053 58.3647 48.6745C55.5682 51.2519 52.9823 54.0483 50.1584 56.5997C48.3981 58.1896 46.7195 59.8706 45.3557 61.8316C45.1357 62.1474 44.9359 62.4773 44.6746 62.8825L44.6751 62.8812Z" fill="#FFB224"/>
<path d="M37.1725 21.7904C37.4608 21.6947 37.6541 21.6293 37.8503 21.568C37.9864 21.5253 38.1325 21.4955 38.2491 21.605C38.3823 21.7301 38.2867 21.8688 38.2345 21.993C38.0533 22.4284 37.7619 22.7915 37.4252 23.1125C35.7588 24.7018 34.2333 26.4267 32.6466 28.0928C31.4164 29.3838 30.0991 30.5861 28.8114 31.8166C27.126 33.427 25.4816 35.0748 24.0797 36.9452C23.7881 37.3354 23.5563 37.7613 23.3195 38.2305C23.545 38.2593 23.6547 38.1382 23.7683 38.0533C26.0962 36.3137 28.3789 34.5169 30.5152 32.5446C33.158 30.1041 35.6433 27.5123 37.846 24.6625C38.4023 23.9424 38.9238 23.1844 39.1434 22.274C39.2121 21.9858 39.2672 21.6937 39.108 21.4135C38.8311 20.9268 38.2897 20.8002 37.8098 21.125C37.5855 21.2762 37.3597 21.4389 37.1722 21.7873L37.1725 21.7904Z" fill="#FFB224"/>
<path d="M93.3604 86.8906C92.5339 86.9622 91.8688 87.3888 91.1971 87.7825C89.9693 88.5026 88.9147 89.4602 87.7792 90.3058C85.213 92.2168 82.7227 94.2257 80.2238 96.2221C78.7989 97.3607 77.4044 98.5369 75.9874 99.6862C75.7502 99.8776 75.4775 100.037 75.2011 100.167C74.6305 100.435 74.2881 100.236 74.2158 99.6255C74.2083 99.5606 74.1838 99.4966 74.1629 99.4235C73.6636 99.8085 73.914 100.656 74.3584 100.883C74.8897 101.153 75.4143 101.116 75.9485 100.929C77.1556 100.506 78.1992 99.7972 79.2262 99.0581C80.8916 97.8607 82.4065 96.4756 84.0274 95.2229C85.1927 94.3211 86.3787 93.4472 87.5468 92.5496C89.0221 91.4174 90.3348 90.1122 91.5701 88.7282C92.1387 88.0914 92.7688 87.5168 93.358 86.8927L93.3604 86.8906Z" fill="#FFB224"/>
<path d="M98.0381 91.4824C96.87 92.0134 95.831 92.7025 94.7887 93.3888C92.5914 94.8361 90.567 96.5026 88.5763 98.2172C86.513 99.9935 84.4054 101.718 82.2544 103.391C81.546 103.943 80.9405 104.619 80.1937 105.127C79.9851 105.269 79.7759 105.413 79.5523 105.528C78.9922 105.815 78.6592 105.623 78.6082 104.996C78.5975 104.859 78.598 104.721 78.5925 104.57C78.0232 104.919 78.106 105.953 78.7183 106.343C79.1318 106.606 79.5627 106.585 80.0076 106.406C81.3283 105.879 82.4451 105.027 83.5804 104.201C86.0109 102.431 88.2212 100.39 90.5894 98.5409C92.2045 97.2799 93.8223 96.0199 95.3128 94.6085C96.2413 93.7293 97.1087 92.7913 97.8623 91.7554C97.9252 91.6686 97.9788 91.5752 98.0371 91.485L98.0381 91.4824Z" fill="#FFB224"/>
<path d="M45.6184 31.1728C46.0399 31.1675 46.3163 30.9991 46.6202 30.9594C46.7571 30.9411 46.9196 30.8967 47.0172 31.0198C47.127 31.1582 47.0003 31.2877 46.9268 31.3975C46.4105 32.1726 45.7278 32.8079 45.1211 33.5066C42.5134 36.5147 39.5706 39.1911 36.7526 41.9908C35.376 43.3582 34.1041 44.8198 32.9246 46.3602C32.604 46.7781 32.345 47.231 32.1332 47.7055C32.1677 47.7327 32.2022 47.76 32.2367 47.7872C32.5246 47.5781 32.8143 47.3683 33.1013 47.1574C35.5578 45.3599 37.7598 43.2823 39.8768 41.1032C41.1772 39.7645 42.5712 38.5171 43.8969 37.202C45.3983 35.7134 46.7491 34.102 47.7396 32.2152C47.8309 32.0416 47.9253 31.8677 47.9962 31.6845C48.1613 31.2594 48.1482 30.8574 47.7956 30.5203C47.4781 30.2168 47.0227 30.1589 46.5809 30.3795C46.229 30.5558 45.9419 30.8164 45.6199 31.1689L45.6184 31.1728Z" fill="#FFB224"/>
<path d="M53.555 72.892C55.1209 71.8394 56.5487 70.7623 57.9225 69.608C59.7416 68.0791 61.3606 66.3428 63.0821 64.7135C64.244 63.6142 65.4208 62.5269 66.505 61.3532C67.3988 60.3864 68.3096 59.4263 68.9882 58.2823C69.2853 57.7827 69.493 57.2462 69.5858 56.6718C69.6867 56.0463 69.2949 55.6062 68.6361 55.5781C68.6294 55.6026 68.6093 55.6384 68.6184 55.6495C69.107 56.2456 69.0945 56.3115 68.6504 56.9387C67.7946 58.1453 66.646 59.0582 65.5576 60.025C63.5311 61.8265 61.6228 63.7487 59.6897 65.6459C57.8262 67.4741 56.044 69.3828 54.3991 71.4136C54.0573 71.8353 53.7098 72.2561 53.5524 72.891L53.555 72.892Z" fill="#FFB224"/>
<path d="M87.9885 82.4179C87.1737 82.7883 86.4334 83.1836 85.7443 83.6596C83.3379 85.3153 81.0563 87.1322 78.834 89.0282C77.0191 90.5769 75.0654 91.95 73.1945 93.4267C72.5893 93.9041 72.01 94.419 71.3498 94.8218C71.1351 94.9527 70.9102 95.075 70.6745 95.1598C70.0571 95.3819 69.7391 95.1596 69.7031 94.5027C69.6956 94.3805 69.6894 94.2588 69.6815 94.1109C69.3238 94.4659 69.1905 95.1313 69.3765 95.5157C69.5825 95.9412 70.1983 96.2344 70.7412 96.1549C71.5659 96.0344 72.2717 95.6269 72.9857 95.2332C75.6058 93.7887 77.9449 91.9599 80.2017 90.0111C81.3907 88.9844 82.6486 88.0394 83.8143 86.9839C85.2311 85.7018 86.572 84.3444 87.7675 82.8511C87.8515 82.7455 87.9796 82.6618 87.9885 82.4179Z" fill="#FFB224"/>
<path d="M65.5565 88.4726C65.3341 88.8977 65.224 89.3022 65.205 89.7202C65.1806 90.2553 65.4884 90.6139 66.0407 90.7855C66.9342 91.0633 67.7628 90.8643 68.5569 90.4435C69.8777 89.7436 71.106 88.9 72.249 87.9441C74.586 85.9908 76.958 84.071 79.1108 81.912C80.3786 80.6404 81.6597 79.3771 82.7854 77.9723C82.9138 77.8119 83.063 77.6596 83.134 77.4267C82.9185 77.3686 82.7966 77.509 82.6633 77.583C80.9224 78.5439 79.34 79.7334 77.8198 81.0062C76.205 82.3579 74.636 83.7654 73.0225 85.1176C71.4407 86.4431 69.8273 87.7305 68.2243 89.0295C67.7606 89.4044 67.2433 89.6902 66.6583 89.8226C65.9726 89.977 65.7141 89.7646 65.6832 89.0643C65.6757 88.8848 65.696 88.6998 65.5578 88.4731L65.5565 88.4726Z" fill="#FFB224"/>
<path d="M22.5722 39.0892C22.3706 39.6869 22.3114 40.2565 22.6426 40.7963C22.9542 41.3058 23.4608 41.3296 23.9865 41.2478C24.667 41.1411 25.265 40.8344 25.8358 40.4671C27.6163 39.3182 29.125 37.8416 30.672 36.4133C31.6531 35.5082 32.6946 34.6752 33.7228 33.8264C35.0987 32.6895 36.3739 31.445 37.62 30.1709C38.6308 29.1371 39.5176 27.9895 40.5653 26.9884C40.5915 26.9641 40.5989 26.9187 40.6348 26.8394C40.0565 26.9472 39.5686 27.1813 39.1017 27.4539C37.9688 28.1134 36.9468 28.9315 35.9443 29.7648C33.5161 31.7847 31.1207 33.8477 28.8226 36.0155C27.6069 37.1629 26.3675 38.2828 25.1217 39.3956C24.7951 39.6874 24.4355 39.933 24.0567 40.1469C23.3386 40.551 22.9126 40.3463 22.7554 39.5418C22.7269 39.3963 22.7596 39.2296 22.5735 39.0897L22.5722 39.0892Z" fill="#FFB224"/>
<path d="M50.6204 35.7782C51.5085 35.8789 51.6083 36.0843 51.1602 36.737C50.8897 37.131 50.5814 37.5025 50.2212 37.8142C48.04 39.6979 46.072 41.8016 44.0229 43.8205C42.1026 45.7123 40.2134 47.6359 38.4625 49.6867C37.7516 50.5192 37.0185 51.3353 36.4158 52.2528C36.2573 52.4934 36.1119 52.7467 36.0883 53.1191C36.6983 52.6602 37.2365 52.2227 37.8089 51.8319C39.6692 50.5652 41.1854 48.9211 42.7586 47.3387C44.282 45.806 45.7873 44.2541 47.339 42.7492C48.9812 41.1564 50.5397 39.4777 51.7529 37.5161C51.946 37.2031 52.0982 36.868 52.152 36.503C52.2088 36.1226 52.085 35.7945 51.7248 35.6219C51.3653 35.4511 51.0095 35.4809 50.6235 35.7779L50.6204 35.7782Z" fill="#FFB224"/>
<path d="M35.338 54.0678C34.9178 54.73 35.0958 55.333 35.7228 55.5673C36.3076 55.7865 36.8921 55.7928 37.4927 55.5942C38.7802 55.1693 39.9263 54.4878 40.9545 53.6314C43.7701 51.288 46.6473 49.0141 49.318 46.5032C50.7732 45.1352 52.0956 43.6452 53.2436 42.0049C53.3198 41.8962 53.4461 41.8058 53.4208 41.6102C53.2177 41.6355 53.0613 41.7563 52.9061 41.8548C51.5089 42.7479 50.1633 43.7126 48.9005 44.7885C46.0498 47.2207 43.2492 49.709 40.343 52.0754C39.3215 52.9073 38.3616 53.8163 37.2705 54.5648C36.8789 54.8339 36.4697 54.9302 36.0029 54.9161C35.6272 54.9049 35.4223 54.7665 35.3893 54.3883C35.3822 54.3071 35.3639 54.2274 35.3372 54.066L35.338 54.0678Z" fill="#FFB224"/>
<path d="M41.5134 26.2648C41.7581 26.2182 41.9044 26.0543 42.1116 26.0607C42.2846 26.0658 42.4564 26.0779 42.5705 26.2241C42.7018 26.3922 42.589 26.5513 42.508 26.6913C42.1672 27.2823 41.667 27.7423 41.2001 28.2246C38.7111 30.7953 36.262 33.406 33.6406 35.8458C31.9327 37.4368 30.3901 39.1822 28.9139 40.9885C28.7062 41.2429 28.491 41.4972 28.3998 41.9682C29.249 41.3926 30.0084 40.8992 30.7476 40.3767C33.811 38.2082 36.4745 35.6008 39.0095 32.8492C40.1596 31.6004 41.3821 30.4165 42.3591 29.0179C42.8187 28.3592 43.2261 27.6723 43.445 26.8897C43.6359 26.2048 43.4841 25.8369 42.9189 25.6255C42.338 25.4079 41.8316 25.6241 41.5134 26.2648Z" fill="#FFB224"/>
<path d="M44.2372 32.3888C43.7378 32.4117 43.3837 32.6051 43.0351 32.8037C41.6744 33.5814 40.4796 34.5922 39.2824 35.5824C36.4918 37.889 33.76 40.2686 30.9948 42.6064C30.1378 43.3313 29.2676 44.0479 28.1946 44.449C27.6579 44.6502 27.5505 44.5746 27.5607 43.9916C27.5636 43.8087 27.5944 43.6278 27.5942 43.4451C27.5948 43.2794 27.7086 43.1252 27.6462 42.9512C27.0498 43.3566 26.7156 44.5492 27.0208 45.1663C27.2028 45.534 27.6626 45.7143 28.2796 45.6308C29.2113 45.5028 30.0735 45.1693 30.8649 44.6674C32.043 43.9202 33.0738 42.9848 34.1257 42.076C35.5279 40.8651 36.9589 39.6882 38.3682 38.4861C40.308 36.8314 42.0338 34.9698 43.6461 32.9986C43.8095 32.7991 44.0047 32.6258 44.2383 32.3862L44.2372 32.3888Z" fill="#FFB224"/>
<path d="M63.7404 50.471C63.7678 50.6191 63.8377 50.6407 63.9014 50.6705C64.5942 50.9866 64.7134 51.3567 64.2962 51.9884C63.9851 52.4583 63.6082 52.8812 63.1823 53.2484C59.776 56.1852 56.6729 59.4425 53.3736 62.494C52.0943 63.6766 50.907 64.9544 49.9655 66.435C49.8171 66.669 49.6432 66.8914 49.5674 67.1708C49.7098 67.2648 49.786 67.1486 49.8652 67.0894C51.5032 65.8812 53.1622 64.7039 54.707 63.3728C55.9957 62.2619 57.1864 61.0518 58.377 59.8417C59.5682 58.6303 60.803 57.4649 62.046 56.3057C63.1043 55.3194 64.1389 54.3056 64.8767 53.0387C65.1205 52.6206 65.2831 52.1749 65.3458 51.6957C65.3967 51.3039 65.2955 50.9682 64.9543 50.7397C64.5865 50.4947 64.19 50.3908 63.7406 50.4741L63.7404 50.471Z" fill="#FFB224"/>
<path d="M35.5381 22.7974C34.9745 22.8718 34.6022 23.0655 34.2332 23.2622C33.2725 23.7725 32.4396 24.4632 31.6052 25.1502C29.9166 26.5436 28.301 28.0232 26.6291 29.4353C24.5277 31.2087 22.4496 33.0109 20.3503 34.7867C20.0605 35.0312 19.7453 35.2445 19.376 35.358C18.9466 35.49 18.7089 35.3508 18.6103 34.9059C18.5694 34.7192 18.592 34.5169 18.4491 34.2869C18.2355 34.7698 18.0719 35.2256 18.296 35.6854C18.5072 36.1205 18.935 36.2519 19.3983 36.2405C20.1877 36.2206 20.8606 35.862 21.5015 35.4546C23.0674 34.4593 24.5189 33.307 25.9698 32.1561C27.916 30.6111 29.78 28.9687 31.5519 27.2234C32.6244 26.1673 33.5255 24.9604 34.5394 23.854C34.839 23.5274 35.1489 23.2093 35.5381 22.7974Z" fill="#FFB224"/>
</svg>
